<?xml version="1.0" encoding="UTF-8" ?>
<svg version="1.1" width="20" height="20" xmlns="http://www.w3.org/2000/svg" shape-rendering="crispEdges">
<rect x="7" y="0" width="6" height="2" fill="#9BABB2" />
<rect x="5" y="1" width="2" height="3" fill="#9BABB2" />
<rect x="13" y="1" width="2" height="4" fill="#9BABB2" />
<rect x="4" y="2" width="1" height="2" fill="#9BABB2" />
<rect x="7" y="2" width="2" height="2" fill="#C7DCD0" />
<rect x="9" y="2" width="2" height="1" fill="#9BABB2" />
<rect x="11" y="2" width="1" height="3" fill="#C7DCD0" />
<rect x="12" y="2" width="1" height="1" fill="#9BABB2" />
<rect x="15" y="2" width="1" height="3" fill="#9BABB2" />
<rect x="3" y="3" width="1" height="13" fill="#9BABB2" />
<rect x="9" y="3" width="1" height="16" fill="#9BABB2" />
<rect x="10" y="3" width="1" height="1" fill="#C7DCD0" />
<rect x="12" y="3" width="1" height="1" fill="#C7DCD0" />
<rect x="16" y="3" width="1" height="3" fill="#9BABB2" />
<rect x="2" y="4" width="1" height="11" fill="#9BABB2" />
<rect x="4" y="4" width="2" height="2" fill="#C7DCD0" />
<rect x="6" y="4" width="3" height="14" fill="#9BABB2" />
<rect x="10" y="4" width="1" height="15" fill="#9BABB2" />
<rect x="12" y="4" width="1" height="16" fill="#9BABB2" />
<rect x="17" y="4" width="1" height="7" fill="#9BABB2" />
<rect x="1" y="5" width="1" height="9" fill="#9BABB2" />
<rect x="11" y="5" width="1" height="14" fill="#9BABB2" />
<rect x="13" y="5" width="1" height="1" fill="#9BABB2" />
<rect x="14" y="5" width="2" height="4" fill="#C7DCD0" />
<rect x="18" y="5" width="1" height="10" fill="#9BABB2" />
<rect x="4" y="6" width="2" height="11" fill="#9BABB2" />
<rect x="13" y="6" width="1" height="2" fill="#C7DCD0" />
<rect x="16" y="6" width="1" height="2" fill="#C7DCD0" />
<rect x="0" y="7" width="1" height="6" fill="#9BABB2" />
<rect x="19" y="7" width="1" height="6" fill="#9BABB2" />
<rect x="13" y="8" width="1" height="11" fill="#9BABB2" />
<rect x="16" y="8" width="1" height="2" fill="#9BABB2" />
<rect x="14" y="9" width="2" height="2" fill="#9BABB2" />
<rect x="16" y="10" width="1" height="3" fill="#C7DCD0" />
<rect x="14" y="11" width="1" height="8" fill="#9BABB2" />
<rect x="15" y="11" width="1" height="1" fill="#C7DCD0" />
<rect x="17" y="11" width="1" height="1" fill="#C7DCD0" />
<rect x="15" y="12" width="1" height="6" fill="#9BABB2" />
<rect x="17" y="12" width="1" height="4" fill="#9BABB2" />
<rect x="16" y="13" width="1" height="4" fill="#9BABB2" />
<rect x="1" y="14" width="1" height="1" fill="#C7DCD0" />
<rect x="2" y="15" width="1" height="1" fill="#C7DCD0" />
<rect x="3" y="16" width="1" height="1" fill="#C7DCD0" />
<rect x="4" y="17" width="2" height="1" fill="#C7DCD0" />
<rect x="5" y="18" width="4" height="1" fill="#C7DCD0" />
<rect x="7" y="19" width="5" height="1" fill="#C7DCD0" />
</svg>