<?xml version="1.0" encoding="UTF-8" ?>
<svg version="1.1" width="200" height="200" xmlns="http://www.w3.org/2000/svg" shape-rendering="crispEdges">
<rect x="70" y="0" width="60" height="20" fill="#9BABB2" />
<rect x="50" y="10" width="20" height="30" fill="#9BABB2" />
<rect x="130" y="10" width="20" height="40" fill="#9BABB2" />
<rect x="40" y="20" width="10" height="20" fill="#9BABB2" />
<rect x="70" y="20" width="20" height="20" fill="#C7DCD0" />
<rect x="90" y="20" width="20" height="10" fill="#9BABB2" />
<rect x="110" y="20" width="10" height="30" fill="#C7DCD0" />
<rect x="120" y="20" width="10" height="10" fill="#9BABB2" />
<rect x="150" y="20" width="10" height="30" fill="#9BABB2" />
<rect x="30" y="30" width="10" height="130" fill="#9BABB2" />
<rect x="90" y="30" width="10" height="160" fill="#9BABB2" />
<rect x="100" y="30" width="10" height="10" fill="#C7DCD0" />
<rect x="120" y="30" width="10" height="10" fill="#C7DCD0" />
<rect x="160" y="30" width="10" height="30" fill="#9BABB2" />
<rect x="20" y="40" width="10" height="110" fill="#9BABB2" />
<rect x="40" y="40" width="20" height="20" fill="#C7DCD0" />
<rect x="60" y="40" width="30" height="140" fill="#9BABB2" />
<rect x="100" y="40" width="10" height="150" fill="#9BABB2" />
<rect x="120" y="40" width="10" height="160" fill="#9BABB2" />
<rect x="170" y="40" width="10" height="70" fill="#9BABB2" />
<rect x="10" y="50" width="10" height="90" fill="#9BABB2" />
<rect x="110" y="50" width="10" height="140" fill="#9BABB2" />
<rect x="130" y="50" width="10" height="10" fill="#9BABB2" />
<rect x="140" y="50" width="20" height="40" fill="#C7DCD0" />
<rect x="180" y="50" width="10" height="100" fill="#9BABB2" />
<rect x="40" y="60" width="20" height="110" fill="#9BABB2" />
<rect x="130" y="60" width="10" height="20" fill="#C7DCD0" />
<rect x="160" y="60" width="10" height="20" fill="#C7DCD0" />
<rect x="0" y="70" width="10" height="60" fill="#9BABB2" />
<rect x="190" y="70" width="10" height="60" fill="#9BABB2" />
<rect x="130" y="80" width="10" height="110" fill="#9BABB2" />
<rect x="160" y="80" width="10" height="20" fill="#9BABB2" />
<rect x="140" y="90" width="20" height="20" fill="#9BABB2" />
<rect x="160" y="100" width="10" height="30" fill="#C7DCD0" />
<rect x="140" y="110" width="10" height="80" fill="#9BABB2" />
<rect x="150" y="110" width="10" height="10" fill="#C7DCD0" />
<rect x="170" y="110" width="10" height="10" fill="#C7DCD0" />
<rect x="150" y="120" width="10" height="60" fill="#9BABB2" />
<rect x="170" y="120" width="10" height="40" fill="#9BABB2" />
<rect x="160" y="130" width="10" height="40" fill="#9BABB2" />
<rect x="10" y="140" width="10" height="10" fill="#C7DCD0" />
<rect x="20" y="150" width="10" height="10" fill="#C7DCD0" />
<rect x="30" y="160" width="10" height="10" fill="#C7DCD0" />
<rect x="40" y="170" width="20" height="10" fill="#C7DCD0" />
<rect x="50" y="180" width="40" height="10" fill="#C7DCD0" />
<rect x="70" y="190" width="50" height="10" fill="#C7DCD0" />
</svg>